<mxfile host="Electron" modified="2023-05-07T13:09:00.506Z" agent="Mozilla/5.0 (Windows NT 10.0; Win64; x64) AppleWebKit/537.36 (KHTML, like Gecko) draw.io/21.2.8 Chrome/112.0.5615.165 Electron/24.2.0 Safari/537.36" etag="zmZ5toyG6KPssLxtMXoD" version="21.2.8" type="device">
  <diagram name="Page-1" id="2YBvvXClWsGukQMizWep">
    <mxGraphModel dx="1098" dy="828" grid="1" gridSize="10" guides="1" tooltips="1" connect="1" arrows="1" fold="1" page="1" pageScale="1" pageWidth="850" pageHeight="1100" math="0" shadow="0">
      <root>
        <mxCell id="0" />
        <mxCell id="1" parent="0" />
        <mxCell id="ZhUtpBukGFUt_rB71HKC-3" style="edgeStyle=orthogonalEdgeStyle;rounded=0;orthogonalLoop=1;jettySize=auto;html=1;exitX=1;exitY=0.5;exitDx=0;exitDy=0;entryX=0;entryY=0.5;entryDx=0;entryDy=0;" edge="1" parent="1" source="ZhUtpBukGFUt_rB71HKC-1" target="ZhUtpBukGFUt_rB71HKC-2">
          <mxGeometry relative="1" as="geometry" />
        </mxCell>
        <mxCell id="ZhUtpBukGFUt_rB71HKC-4" value="sends message" style="edgeLabel;html=1;align=center;verticalAlign=middle;resizable=0;points=[];" vertex="1" connectable="0" parent="ZhUtpBukGFUt_rB71HKC-3">
          <mxGeometry x="-0.2636" y="3" relative="1" as="geometry">
            <mxPoint x="27" as="offset" />
          </mxGeometry>
        </mxCell>
        <mxCell id="ZhUtpBukGFUt_rB71HKC-1" value="User A" style="rounded=0;whiteSpace=wrap;html=1;" vertex="1" parent="1">
          <mxGeometry x="30" y="30" width="180" height="60" as="geometry" />
        </mxCell>
        <mxCell id="ZhUtpBukGFUt_rB71HKC-7" style="edgeStyle=orthogonalEdgeStyle;rounded=0;orthogonalLoop=1;jettySize=auto;html=1;exitX=0.5;exitY=1;exitDx=0;exitDy=0;entryX=0.5;entryY=0;entryDx=0;entryDy=0;" edge="1" parent="1" source="ZhUtpBukGFUt_rB71HKC-2" target="ZhUtpBukGFUt_rB71HKC-6">
          <mxGeometry relative="1" as="geometry" />
        </mxCell>
        <mxCell id="ZhUtpBukGFUt_rB71HKC-2" value="User B" style="rounded=0;whiteSpace=wrap;html=1;" vertex="1" parent="1">
          <mxGeometry x="380" y="30" width="180" height="60" as="geometry" />
        </mxCell>
        <mxCell id="ZhUtpBukGFUt_rB71HKC-8" style="edgeStyle=orthogonalEdgeStyle;rounded=0;orthogonalLoop=1;jettySize=auto;html=1;exitX=1;exitY=0.5;exitDx=0;exitDy=0;entryX=0;entryY=0.5;entryDx=0;entryDy=0;" edge="1" parent="1" source="ZhUtpBukGFUt_rB71HKC-6" target="ZhUtpBukGFUt_rB71HKC-11">
          <mxGeometry relative="1" as="geometry">
            <mxPoint x="700" y="210" as="targetPoint" />
            <mxPoint x="520" y="209.5" as="sourcePoint" />
          </mxGeometry>
        </mxCell>
        <mxCell id="ZhUtpBukGFUt_rB71HKC-9" value="Yes" style="edgeLabel;html=1;align=center;verticalAlign=middle;resizable=0;points=[];" vertex="1" connectable="0" parent="ZhUtpBukGFUt_rB71HKC-8">
          <mxGeometry x="-0.2031" y="-3" relative="1" as="geometry">
            <mxPoint x="14" y="-3" as="offset" />
          </mxGeometry>
        </mxCell>
        <mxCell id="ZhUtpBukGFUt_rB71HKC-12" style="edgeStyle=orthogonalEdgeStyle;rounded=0;orthogonalLoop=1;jettySize=auto;html=1;exitX=0.5;exitY=1;exitDx=0;exitDy=0;" edge="1" parent="1" source="ZhUtpBukGFUt_rB71HKC-6" target="ZhUtpBukGFUt_rB71HKC-13">
          <mxGeometry relative="1" as="geometry">
            <mxPoint x="470" y="330" as="targetPoint" />
          </mxGeometry>
        </mxCell>
        <mxCell id="ZhUtpBukGFUt_rB71HKC-14" value="No" style="edgeLabel;html=1;align=center;verticalAlign=middle;resizable=0;points=[];" vertex="1" connectable="0" parent="ZhUtpBukGFUt_rB71HKC-12">
          <mxGeometry x="-0.25" y="3" relative="1" as="geometry">
            <mxPoint x="-3" y="4" as="offset" />
          </mxGeometry>
        </mxCell>
        <mxCell id="ZhUtpBukGFUt_rB71HKC-6" value="Exists chat?" style="rhombus;whiteSpace=wrap;html=1;" vertex="1" parent="1">
          <mxGeometry x="430" y="170" width="80" height="80" as="geometry" />
        </mxCell>
        <mxCell id="ZhUtpBukGFUt_rB71HKC-11" value="Save message in chat" style="rounded=1;whiteSpace=wrap;html=1;absoluteArcSize=1;arcSize=22;strokeWidth=2;" vertex="1" parent="1">
          <mxGeometry x="680" y="180" width="120" height="60" as="geometry" />
        </mxCell>
        <mxCell id="ZhUtpBukGFUt_rB71HKC-16" style="edgeStyle=orthogonalEdgeStyle;rounded=0;orthogonalLoop=1;jettySize=auto;html=1;exitX=1;exitY=0.5;exitDx=0;exitDy=0;entryX=0.5;entryY=1;entryDx=0;entryDy=0;" edge="1" parent="1" source="ZhUtpBukGFUt_rB71HKC-13" target="ZhUtpBukGFUt_rB71HKC-11">
          <mxGeometry relative="1" as="geometry" />
        </mxCell>
        <mxCell id="ZhUtpBukGFUt_rB71HKC-13" value="Create a chat&lt;br&gt;between them" style="rounded=1;whiteSpace=wrap;html=1;absoluteArcSize=1;arcSize=22;strokeWidth=2;" vertex="1" parent="1">
          <mxGeometry x="410" y="320" width="120" height="60" as="geometry" />
        </mxCell>
      </root>
    </mxGraphModel>
  </diagram>
</mxfile>
